<svg width="194" height="178" viewBox="0 0 194 178" fill="none" xmlns="http://www.w3.org/2000/svg">
<path d="M33.9167 5.44632C18.4427 12.0609 0 28.0088 0 66.4567C0 104.899 18.4427 120.858 33.9167 127.467C42.8438 131.285 52.724 132.915 62.7708 132.915C90.3698 132.915 119.224 120.592 133.036 107.373C136.266 104.28 139.109 100.863 141.573 97.1286L159.266 112.103C160.318 112.993 161.443 113.774 162.651 114.441C163.854 115.108 165.115 115.655 166.427 116.071C167.74 116.493 169.083 116.78 170.453 116.936C171.823 117.092 173.193 117.108 174.568 116.993C175.938 116.879 177.286 116.634 178.615 116.254C179.938 115.873 181.214 115.363 182.438 114.733C183.661 114.103 184.812 113.358 185.891 112.498C186.969 111.639 187.953 110.686 188.844 109.629C189.734 108.577 190.516 107.446 191.182 106.243C191.849 105.035 192.391 103.774 192.812 102.462C193.229 101.149 193.521 99.8109 193.672 98.4411C193.828 97.0713 193.849 95.6963 193.734 94.3213C193.62 92.9515 193.375 91.5974 192.99 90.2744C192.609 88.9515 192.104 87.6755 191.474 86.4463C190.844 85.2224 190.099 84.0713 189.24 82.9932C188.38 81.9151 187.427 80.9307 186.375 80.0401L170.323 66.4567L186.38 52.8734C187.427 51.9776 188.375 50.9932 189.229 49.9151C190.083 48.8369 190.823 47.6859 191.448 46.4619C192.073 45.238 192.578 43.9619 192.953 42.639C193.328 41.3161 193.573 39.9672 193.688 38.5974C193.797 37.2276 193.776 35.8578 193.62 34.4932C193.464 33.1234 193.172 31.7849 192.755 30.4776C192.333 29.1651 191.792 27.9099 191.125 26.7067C190.458 25.5036 189.682 24.3786 188.792 23.3265C187.906 22.2744 186.922 21.3213 185.849 20.4671C184.771 19.6078 183.625 18.863 182.401 18.2328C181.182 17.6026 179.906 17.0921 178.589 16.7119C177.266 16.3317 175.922 16.0817 174.552 15.9619C173.182 15.8474 171.812 15.863 170.448 16.014C169.078 16.1651 167.74 16.4515 166.427 16.8682C165.12 17.2796 163.859 17.8213 162.656 18.4828C161.448 19.1442 160.323 19.9151 159.266 20.8005L141.573 35.7849C139.109 32.0505 136.266 28.6338 133.036 25.5401C114.203 7.51403 67.3906 -8.85056 33.9167 5.44632ZM124.688 34.2692C128.76 38.1911 132.052 42.6859 134.562 47.7588L137.995 54.6338L167.073 30.0192C167.521 29.6442 168 29.3213 168.51 29.0401C169.021 28.7588 169.557 28.5349 170.115 28.3578C170.672 28.1859 171.24 28.0661 171.818 28.0036C172.396 27.9411 172.979 27.9359 173.557 27.988C174.141 28.0349 174.708 28.1442 175.271 28.3057C175.828 28.4672 176.37 28.6859 176.885 28.9515C177.406 29.2224 177.891 29.5401 178.344 29.9047C178.802 30.2692 179.219 30.6703 179.594 31.1182C179.969 31.5661 180.297 32.0401 180.583 32.5505C180.865 33.0609 181.094 33.5974 181.271 34.1494C181.448 34.7067 181.573 35.2744 181.641 35.8526C181.703 36.4359 181.714 37.014 181.667 37.5974C181.62 38.1755 181.516 38.7484 181.354 39.3109C181.198 39.8682 180.984 40.4099 180.719 40.9307C180.453 41.4515 180.141 41.9411 179.781 42.3942C179.417 42.8526 179.016 43.2744 178.573 43.6494L151.625 66.4567L178.573 89.264C179.021 89.639 179.427 90.0609 179.797 90.5192C180.161 90.9724 180.479 91.4619 180.75 91.9828C181.021 92.5036 181.24 93.0453 181.401 93.6078C181.562 94.1755 181.672 94.7484 181.719 95.3317C181.771 95.9151 181.76 96.4984 181.698 97.0817C181.63 97.6651 181.51 98.238 181.333 98.7953C181.156 99.3526 180.927 99.889 180.641 100.405C180.359 100.915 180.026 101.399 179.646 101.847C179.271 102.295 178.849 102.702 178.391 103.066C177.932 103.431 177.443 103.748 176.922 104.014C176.401 104.285 175.859 104.498 175.297 104.66C174.734 104.821 174.156 104.925 173.573 104.978C172.99 105.024 172.406 105.014 171.823 104.946C171.24 104.879 170.672 104.759 170.115 104.577C169.557 104.399 169.021 104.165 168.505 103.879C167.995 103.597 167.516 103.264 167.068 102.884L137.995 78.2744L134.562 85.1546C132.057 90.2224 128.766 94.7224 124.688 98.6442C109.026 113.639 66.7292 128.347 38.6615 116.358C21.0208 108.816 12.0781 92.0296 12.0781 66.4567C12.0781 40.8786 21.0208 24.0921 38.6615 16.5557C45.8802 13.4671 54.0417 12.1494 62.4531 12.1494C86.724 12.1494 113.052 23.1286 124.688 34.2692Z" fill="#9FD5E4"/>
<path d="M25.8333 66.4574C25.8333 67.0199 25.8905 67.5771 25.9999 68.1292C26.1093 68.6813 26.2708 69.2126 26.4843 69.7334C26.703 70.2542 26.9635 70.749 27.276 71.2178C27.5885 71.6813 27.9478 72.1188 28.3437 72.5146C28.7395 72.9105 29.1718 73.2699 29.6405 73.5824C30.1093 73.8949 30.6041 74.1553 31.1197 74.374C31.6405 74.5876 32.177 74.749 32.7291 74.8584C33.2812 74.9678 33.8385 75.0251 34.401 75.0251C34.9635 75.0251 35.5208 74.9678 36.0728 74.8584C36.6249 74.749 37.1562 74.5876 37.677 74.374C38.1978 74.1553 38.6926 73.8949 39.1562 73.5824C39.6249 73.2699 40.0572 72.9105 40.4583 72.5146C40.8541 72.1188 41.2083 71.6813 41.5208 71.2178C41.8333 70.749 42.0989 70.2542 42.3124 69.7334C42.526 69.2126 42.6926 68.6813 42.802 68.1292C42.9114 67.5771 42.9635 67.0199 42.9635 66.4574C42.9635 65.8949 42.9114 65.3376 42.802 64.7855C42.6926 64.2334 42.526 63.6969 42.3124 63.1761C42.0989 62.6553 41.8333 62.1657 41.5208 61.6969C41.2083 61.2282 40.8541 60.7959 40.4583 60.3949C40.0572 59.999 39.6249 59.6449 39.1562 59.3324C38.6926 59.0199 38.1978 58.7542 37.677 58.5407C37.1562 58.3271 36.6249 58.1605 36.0728 58.0511C35.5208 57.9417 34.9635 57.8896 34.401 57.8896C33.8385 57.8896 33.2812 57.9417 32.7291 58.0511C32.177 58.1605 31.6405 58.3271 31.1197 58.5407C30.6041 58.7542 30.1093 59.0199 29.6405 59.3324C29.1718 59.6449 28.7395 59.999 28.3437 60.3949C27.9478 60.7959 27.5885 61.2282 27.276 61.6969C26.9635 62.1657 26.703 62.6553 26.4843 63.1761C26.2708 63.6969 26.1093 64.2334 25.9999 64.7855C25.8905 65.3376 25.8333 65.8949 25.8333 66.4574Z" fill="#9FD5E4"/>
<mask id="mask0_3212_1338" style="mask-type:luminance" maskUnits="userSpaceOnUse" x="30" y="142" width="120" height="36">
<path d="M30.3228 142.848H149.75V177.113H30.3228V142.848Z" fill="white"/>
</mask>
<g mask="url(#mask0_3212_1338)">
<path d="M31.1561 159.275C31.8124 160.77 32.7343 162.176 33.6978 163.499C35.0155 165.254 36.3332 166.926 37.953 168.421C39.7551 170.092 41.7707 171.629 43.9634 172.863C49.2707 175.806 55.5416 177.035 61.552 176.29C63.6561 176.025 65.7186 175.717 67.7759 175.15C70.0572 174.53 72.2499 173.655 74.4009 172.686C78.0415 171.103 81.5051 169.082 84.927 167.103C90.4113 163.936 95.8488 160.639 101.594 157.957C102.208 157.697 102.823 157.431 103.391 157.165C102.911 157.384 102.427 157.561 101.943 157.78C104.708 156.592 107.604 155.671 110.63 155.233C110.104 155.322 109.531 155.363 109.005 155.452C110.937 155.186 112.911 155.186 114.838 155.41C114.312 155.322 113.745 155.275 113.219 155.186C115.276 155.452 117.297 156.025 119.182 156.858C118.698 156.639 118.219 156.462 117.734 156.243C120.719 157.52 123.479 159.275 126.068 161.254C125.672 160.947 125.234 160.639 124.838 160.29C130.234 164.462 134.885 169.52 139.312 174.665C140.276 175.806 142.161 176.467 143.609 176.467C145.104 176.467 146.854 175.806 147.911 174.665C148.963 173.52 149.75 171.983 149.708 170.353C149.62 169.827 149.578 169.254 149.489 168.728C149.182 167.717 148.698 166.796 147.911 166.046C142.864 160.155 137.516 154.572 131.245 149.999C129.182 148.462 126.989 147.098 124.661 146.046C122.25 144.947 119.75 143.978 117.12 143.54C114.62 143.145 112.161 142.921 109.62 143.186C107.031 143.493 104.489 143.936 102.031 144.77C96.9009 146.483 92.078 149.035 87.3853 151.671C84.7968 153.124 82.2082 154.618 79.6197 156.113C76.6405 157.827 73.6978 159.582 70.6301 161.077C69.8384 161.473 69.0051 161.827 68.1718 162.176C68.6561 161.957 69.1405 161.785 69.6197 161.561C66.5936 162.837 63.4791 163.806 60.2343 164.243C60.7603 164.155 61.3332 164.113 61.8593 164.025C59.578 164.332 57.2082 164.379 54.927 164.066C55.453 164.155 56.0259 164.202 56.552 164.29C54.578 164.025 52.6457 163.499 50.8072 162.749C51.2863 162.967 51.7707 163.145 52.2499 163.363C50.4113 162.572 48.6561 161.561 47.078 160.332C47.4738 160.639 47.9113 160.947 48.3072 161.301C46.5051 159.895 44.927 158.311 43.5676 156.509C43.8749 156.905 44.1822 157.342 44.5311 157.738C43.5259 156.421 42.5572 154.967 41.8593 153.473C41.8124 153.384 41.7707 153.296 41.7238 153.212C41.1561 151.889 39.4009 150.79 38.0884 150.395C36.6405 149.999 34.7082 150.176 33.3905 151.014C32.078 151.848 30.9374 153.077 30.5884 154.66C30.4999 155.186 30.453 155.759 30.3645 156.285C30.3228 157.301 30.5884 158.311 31.1561 159.275Z" fill="#9FD5E4"/>
</g>
</svg>
