<svg xmlns="http://www.w3.org/2000/svg" xmlns:xlink="http://www.w3.org/1999/xlink" width="500" zoomAndPan="magnify" viewBox="0 0 375 374.999991" height="500" preserveAspectRatio="xMidYMid meet" version="1.0"><defs><clipPath id="36d59298c7"><path d="M 81.019531 103.460938 L 277.054688 103.460938 L 277.054688 234.152344 L 81.019531 234.152344 Z M 81.019531 103.460938 " clip-rule="nonzero"/></clipPath><clipPath id="4ffcc46ba0"><path d="M 248.109375 218.726562 L 290.910156 218.726562 L 290.910156 246.644531 L 248.109375 246.644531 Z M 248.109375 218.726562 " clip-rule="nonzero"/></clipPath><clipPath id="0f372499ff"><path d="M 267.589844 236.839844 C 287.023438 219.355469 287.703125 218.847656 288.550781 218.933594 C 289.230469 218.933594 289.992188 219.441406 290.332031 219.949219 C 290.671875 220.460938 290.671875 221.136719 290.5 221.988281 C 290.078125 223.683594 287.785156 226.570312 286.171875 228.945312 C 284.390625 231.578125 281.761719 235.988281 280.316406 237.261719 C 279.722656 237.773438 279.382812 237.941406 278.875 238.027344 C 278.367188 238.109375 277.773438 238.027344 277.347656 237.6875 C 276.839844 237.347656 276.328125 236.667969 276.328125 235.820312 C 276.246094 234.207031 278.28125 229.03125 279.554688 228.519531 C 280.316406 228.265625 282.015625 229.371094 281.929688 229.539062 C 281.847656 229.878906 277.941406 229.117188 275.140625 229.453125 C 270.132812 230.050781 258.933594 235.394531 254.859375 234.886719 C 252.992188 234.632812 251.210938 233.78125 250.871094 232.765625 C 250.53125 231.832031 251.71875 229.199219 252.566406 229.03125 C 253.5 228.777344 255.621094 230.644531 256.472656 232.253906 C 257.660156 234.460938 255.621094 240.996094 257.488281 242.101562 C 259.695312 243.457031 266.824219 237.941406 270.558594 236.839844 C 273.273438 235.988281 276.160156 235.3125 277.6875 235.3125 C 278.449219 235.3125 278.875 235.3125 279.300781 235.648438 C 279.808594 235.988281 280.402344 236.921875 280.316406 237.601562 C 280.234375 238.367188 279.128906 239.640625 278.28125 239.894531 C 277.347656 240.234375 275.566406 239.808594 274.800781 239.128906 C 274.121094 238.535156 273.953125 237.515625 273.867188 236.582031 C 273.785156 235.648438 274.039062 234.886719 274.378906 233.613281 C 275.054688 231.40625 277.007812 225.976562 278.367188 224.449219 C 279.046875 223.683594 279.722656 223.34375 280.402344 223.34375 C 281.167969 223.429688 282.355469 224.277344 282.695312 224.957031 C 282.949219 225.464844 283.117188 226.058594 282.695312 226.738281 C 281.589844 228.691406 272.085938 234.886719 269.710938 234.292969 C 268.4375 233.953125 267.332031 231.832031 267.589844 230.644531 C 267.84375 229.117188 271.660156 226.824219 273.019531 226.230469 C 273.699219 225.976562 274.207031 225.890625 274.800781 226.058594 C 275.480469 226.316406 276.328125 227.078125 276.585938 227.671875 C 276.839844 228.183594 276.839844 228.691406 276.585938 229.453125 C 275.988281 231.320312 272.511719 237.601562 270.644531 238.367188 C 269.625 238.789062 268.265625 238.367188 267.757812 237.773438 C 267.25 237.175781 267.078125 235.988281 267.332031 234.886719 C 267.671875 233.1875 269.457031 229.453125 270.898438 228.945312 C 271.917969 228.605469 274.121094 229.453125 274.292969 230.21875 C 274.546875 231.066406 272.679688 233.019531 271.324219 233.867188 C 269.710938 234.886719 265.976562 236.160156 264.789062 235.566406 C 263.9375 235.140625 263.601562 233.527344 263.601562 232.59375 C 263.601562 231.746094 264.023438 230.726562 264.617188 230.304688 C 265.210938 229.878906 266.398438 229.710938 267.078125 229.878906 C 267.671875 230.050781 268.265625 230.472656 268.523438 231.066406 C 268.863281 231.917969 268.523438 233.445312 267.84375 234.800781 C 266.65625 237.175781 261.988281 242.4375 259.867188 242.863281 C 258.761719 243.035156 257.488281 242.355469 257.066406 241.589844 C 256.640625 240.910156 256.640625 239.722656 257.234375 238.535156 C 258.675781 235.566406 268.097656 227.332031 270.898438 226.230469 C 271.917969 225.804688 272.59375 225.890625 273.191406 226.144531 C 273.785156 226.398438 274.546875 227.164062 274.632812 227.925781 C 274.71875 229.371094 272.171875 232.511719 270.898438 234.121094 C 269.964844 235.3125 269.03125 236.242188 268.011719 236.839844 C 267.164062 237.261719 266.230469 237.773438 265.46875 237.515625 C 264.617188 237.261719 263.601562 235.988281 263.429688 234.714844 C 263.175781 232.59375 265.890625 226.65625 267.503906 225.722656 C 268.4375 225.210938 269.878906 225.550781 270.472656 226.144531 C 271.066406 226.738281 271.492188 228.011719 271.152344 229.03125 C 270.390625 231.066406 264.535156 234.207031 261.816406 235.820312 C 259.867188 236.921875 257.828125 238.195312 256.472656 238.195312 C 255.539062 238.195312 254.6875 237.6875 254.265625 237.175781 C 253.925781 236.753906 253.753906 236.160156 253.839844 235.394531 C 254.011719 233.867188 255.878906 229.625 257.066406 228.605469 C 257.660156 228.097656 258.253906 228.011719 258.847656 228.011719 C 259.441406 228.011719 260.121094 228.265625 260.542969 228.691406 C 260.96875 229.117188 261.308594 229.792969 261.394531 230.386719 C 261.476562 230.984375 261.308594 231.40625 260.882812 232.171875 C 259.78125 234.292969 254.6875 242.523438 252.820312 242.609375 C 251.886719 242.695312 250.445312 241.25 250.617188 240.316406 C 250.871094 238.28125 261.648438 233.019531 264.535156 232.339844 C 265.722656 232.085938 266.570312 232.085938 267.25 232.511719 C 267.929688 232.933594 268.605469 233.867188 268.691406 234.800781 C 268.777344 236.160156 267.589844 238.621094 266.398438 239.808594 C 265.382812 240.910156 263.175781 242.269531 262.242188 242.015625 C 261.5625 241.84375 261.054688 240.570312 260.882812 239.722656 C 260.714844 238.789062 260.800781 237.6875 261.394531 236.5 C 262.328125 234.378906 266.144531 229.117188 267.84375 228.945312 C 268.777344 228.859375 270.304688 229.964844 270.21875 230.726562 C 270.132812 232.339844 260.800781 237.433594 258.167969 237.601562 C 256.980469 237.6875 255.960938 237.261719 255.539062 236.582031 C 255.113281 235.988281 255.199219 234.800781 255.539062 233.78125 C 256.214844 232 258.847656 229.199219 260.800781 227.25 C 262.667969 225.382812 265.210938 223.34375 267.078125 222.328125 C 268.351562 221.5625 269.625 220.796875 270.558594 220.96875 C 271.40625 221.136719 272.339844 221.730469 272.59375 222.664062 C 273.105469 224.449219 271.238281 229.03125 269.964844 232 C 268.605469 235.140625 266.0625 239.46875 264.617188 240.996094 C 263.9375 241.675781 263.429688 242.101562 262.835938 242.101562 C 262.15625 242.101562 260.882812 241.335938 260.542969 240.742188 C 260.207031 240.148438 260.289062 239.554688 260.628906 238.621094 C 261.5625 235.90625 268.097656 226.484375 270.726562 224.789062 C 271.832031 224.109375 272.851562 223.769531 273.527344 224.109375 C 274.121094 224.449219 274.546875 225.722656 274.546875 226.738281 C 274.460938 228.011719 273.613281 229.539062 272.425781 231.238281 C 270.21875 234.378906 263.089844 242.015625 260.460938 242.777344 C 259.441406 243.117188 258.421875 242.695312 257.914062 242.269531 C 257.574219 241.929688 257.40625 241.421875 257.40625 240.996094 C 257.40625 240.488281 257.828125 239.554688 258.253906 239.214844 C 258.675781 238.875 259.609375 238.621094 260.121094 238.875 C 260.714844 239.128906 261.5625 240.234375 261.5625 240.910156 C 261.5625 241.503906 261.140625 242.355469 260.628906 242.609375 C 260.035156 242.949219 258.59375 242.863281 258.082031 242.4375 C 257.574219 242.015625 257.320312 240.910156 257.660156 239.894531 C 258.507812 237.347656 266.398438 232.085938 268.605469 229.03125 C 269.878906 227.25 269.964844 225.042969 271.066406 224.363281 C 271.917969 223.855469 273.445312 223.855469 273.953125 224.363281 C 274.460938 224.871094 274.632812 225.976562 274.292969 227.25 C 273.527344 230.304688 266.570312 239.722656 264.277344 241.421875 C 263.429688 242.015625 262.835938 242.183594 262.242188 242.101562 C 261.734375 242.015625 261.140625 241.675781 260.882812 241.25 C 260.542969 240.65625 260.375 239.722656 260.628906 238.621094 C 261.140625 236.582031 264.363281 233.1875 265.722656 230.304688 C 267.078125 227.417969 267.417969 222.328125 268.945312 221.394531 C 269.796875 220.882812 271.492188 221.136719 272 221.730469 C 272.511719 222.328125 272.59375 223.769531 272.085938 224.789062 C 271.152344 226.65625 266.316406 228.691406 264.195312 230.472656 C 262.496094 231.832031 260.96875 233.105469 260.035156 234.460938 C 259.355469 235.480469 259.441406 237.007812 258.761719 237.433594 C 258.167969 237.855469 256.980469 237.773438 256.386719 237.433594 C 255.792969 237.09375 255.113281 236.160156 255.113281 235.480469 C 255.113281 234.714844 255.621094 233.867188 256.386719 233.019531 C 257.914062 231.40625 262.582031 228.859375 265.210938 227.671875 C 267.164062 226.738281 269.117188 225.722656 270.472656 225.890625 C 271.40625 226.058594 272.257812 226.65625 272.59375 227.417969 C 273.019531 228.519531 272.339844 230.644531 271.492188 232.339844 C 270.304688 234.714844 266.65625 239.722656 265.128906 239.640625 C 264.195312 239.554688 263.003906 237.433594 263.003906 236.242188 C 263.003906 235.140625 264.023438 233.273438 264.957031 232.765625 C 265.804688 232.339844 267.671875 232.59375 268.183594 233.1875 C 268.691406 233.78125 268.523438 235.90625 268.011719 236.414062 C 267.589844 236.839844 266.570312 236.160156 265.636719 236.5 C 263.601562 237.175781 259.949219 240.828125 257.234375 242.355469 C 255.027344 243.628906 252.3125 245.664062 250.785156 245.15625 C 249.511719 244.730469 248.15625 242.609375 248.238281 240.828125 C 248.410156 237.773438 254.773438 230.050781 257.066406 228.605469 C 258 228.011719 258.761719 227.84375 259.441406 228.097656 C 260.207031 228.351562 261.222656 229.453125 261.394531 230.386719 C 261.5625 231.660156 260.207031 234.039062 259.273438 235.394531 C 258.507812 236.582031 257.40625 238.109375 256.472656 238.195312 C 255.621094 238.28125 254.347656 237.347656 254.011719 236.582031 C 253.671875 235.820312 253.925781 234.800781 254.605469 233.78125 C 256.214844 231.492188 264.789062 226.484375 267.503906 225.722656 C 268.605469 225.382812 269.371094 225.296875 269.964844 225.722656 C 270.644531 226.144531 271.324219 227.25 271.324219 228.4375 C 271.40625 230.472656 269.117188 235.566406 267.757812 236.839844 C 267.078125 237.433594 266.144531 237.6875 265.46875 237.515625 C 264.789062 237.347656 263.855469 236.582031 263.601562 235.90625 C 263.34375 235.226562 263.429688 234.460938 263.855469 233.527344 C 264.703125 231.660156 268.691406 227.671875 270.390625 226.570312 C 271.238281 226.058594 271.917969 225.722656 272.59375 225.890625 C 273.359375 226.058594 274.460938 227.164062 274.632812 227.925781 C 274.800781 228.605469 274.378906 229.371094 273.867188 230.21875 C 273.019531 231.578125 271.238281 233.019531 269.457031 234.714844 C 266.910156 237.09375 262.070312 242.4375 259.867188 242.863281 C 258.847656 243.035156 258 242.609375 257.488281 242.101562 C 256.980469 241.589844 256.554688 240.65625 256.726562 239.722656 C 256.980469 238.195312 259.609375 234.972656 261.054688 233.953125 C 261.902344 233.359375 263.089844 233.78125 263.683594 233.1875 C 264.277344 232.59375 263.9375 230.8125 264.617188 230.304688 C 265.296875 229.792969 266.910156 229.710938 267.671875 230.132812 C 268.351562 230.558594 269.117188 232.679688 269.03125 232.679688 C 268.945312 232.679688 267.417969 231.152344 267.417969 230.472656 C 267.417969 229.792969 268.351562 229.117188 269.117188 228.4375 C 270.21875 227.503906 272.425781 225.804688 273.785156 225.890625 C 274.886719 225.890625 276.328125 226.65625 276.585938 227.671875 C 277.09375 229.539062 273.105469 236.074219 271.660156 237.601562 C 271.066406 238.195312 270.644531 238.449219 270.050781 238.535156 C 269.371094 238.621094 268.265625 238.28125 267.757812 237.773438 C 267.25 237.261719 267.078125 235.988281 267.164062 235.394531 C 267.164062 234.972656 267.589844 234.292969 267.671875 234.292969 C 267.757812 234.292969 267.332031 236.074219 267.503906 236.160156 C 267.929688 236.242188 270.726562 227.757812 272.511719 226.570312 C 273.445312 225.976562 274.71875 225.890625 275.394531 226.316406 C 276.074219 226.738281 276.921875 228.011719 276.753906 228.859375 C 276.5 230.21875 272.679688 233.359375 271.746094 233.105469 C 271.152344 232.933594 270.726562 231.238281 270.8125 230.304688 C 270.984375 229.285156 271.746094 228.265625 272.765625 227.332031 C 274.292969 225.890625 278.195312 223.683594 279.808594 223.429688 C 280.574219 223.261719 281.082031 223.34375 281.589844 223.683594 C 282.183594 224.023438 282.777344 224.789062 282.863281 225.550781 C 283.035156 226.65625 282.269531 228.4375 281.507812 229.878906 C 280.65625 231.660156 277.433594 234.207031 277.6875 235.3125 C 277.855469 235.988281 279.722656 235.820312 280.0625 236.5 C 280.402344 237.09375 280.402344 238.28125 279.722656 239.128906 C 277.773438 241.503906 264.277344 244.816406 260.207031 245.75 C 258.421875 246.171875 257.40625 246.597656 256.214844 246.171875 C 254.859375 245.75 253.332031 244.390625 252.652344 242.949219 C 251.804688 241.167969 251.804688 237.773438 252.144531 235.90625 C 252.398438 234.632812 252.820312 233.78125 253.5 232.847656 C 254.179688 231.832031 254.859375 231.066406 256.386719 230.21875 C 259.78125 228.265625 269.964844 225.125 275.140625 224.703125 C 278.789062 224.363281 283.203125 224.363281 284.476562 225.804688 C 285.324219 226.738281 284.816406 228.605469 284.390625 230.132812 C 283.796875 232.253906 281.507812 236.160156 280.316406 237.261719 C 279.808594 237.773438 279.382812 238.027344 278.875 238.027344 C 278.195312 238.027344 276.921875 237.433594 276.585938 236.839844 C 276.246094 236.328125 276.246094 235.648438 276.585938 234.714844 C 277.433594 231.832031 284.5625 220.96875 287.105469 219.441406 C 288.039062 218.847656 288.972656 218.933594 289.570312 219.1875 C 290.078125 219.355469 290.417969 219.867188 290.585938 220.375 C 290.757812 220.96875 290.671875 221.648438 290.246094 222.410156 C 289.230469 224.109375 284.984375 226.144531 282.183594 228.691406 C 278.621094 231.832031 273.527344 239.042969 270.726562 240.234375 C 269.539062 240.742188 268.265625 240.570312 267.671875 240.234375 C 267.25 239.976562 266.910156 239.300781 266.910156 238.789062 C 266.824219 238.195312 267.589844 236.839844 267.589844 236.839844 " clip-rule="nonzero"/></clipPath><clipPath id="fa06916d72"><path d="M 128.050781 242 L 231.550781 242 L 231.550781 271.839844 L 128.050781 271.839844 Z M 128.050781 242 " clip-rule="nonzero"/></clipPath></defs><rect x="-37.5" width="450" fill="#ffffff" y="-37.499999" height="449.999989" fill-opacity="1"/><rect x="-37.5" width="450" fill="#ffffff" y="-37.499999" height="449.999989" fill-opacity="1"/><path fill="#9fd5e4" d="M 131.320312 122.816406 C 117.890625 128.554688 101.882812 142.394531 101.882812 175.753906 C 101.882812 209.113281 117.890625 222.957031 131.320312 228.695312 C 139.074219 232.007812 147.644531 233.421875 156.367188 233.421875 C 180.324219 233.421875 205.371094 222.730469 217.359375 211.257812 C 220.164062 208.574219 222.632812 205.609375 224.769531 202.367188 L 240.125 215.363281 C 240.582031 215.75 241.054688 216.109375 241.546875 216.449219 C 242.039062 216.789062 242.542969 217.101562 243.066406 217.390625 C 243.589844 217.679688 244.125 217.945312 244.671875 218.179688 C 245.21875 218.417969 245.777344 218.625 246.34375 218.808594 C 246.914062 218.988281 247.488281 219.140625 248.074219 219.265625 C 248.65625 219.390625 249.246094 219.488281 249.835938 219.554688 C 250.429688 219.625 251.027344 219.660156 251.621094 219.671875 C 252.21875 219.679688 252.816406 219.660156 253.410156 219.609375 C 254.003906 219.558594 254.59375 219.480469 255.179688 219.371094 C 255.769531 219.265625 256.347656 219.128906 256.921875 218.964844 C 257.496094 218.800781 258.058594 218.605469 258.613281 218.386719 C 259.167969 218.167969 259.710938 217.917969 260.242188 217.644531 C 260.773438 217.371094 261.289062 217.074219 261.789062 216.75 C 262.289062 216.425781 262.773438 216.078125 263.242188 215.707031 C 263.707031 215.335938 264.15625 214.941406 264.582031 214.523438 C 265.011719 214.109375 265.417969 213.671875 265.804688 213.21875 C 266.1875 212.761719 266.550781 212.289062 266.890625 211.796875 C 267.226562 211.308594 267.542969 210.800781 267.832031 210.277344 C 268.121094 209.757812 268.382812 209.222656 268.621094 208.671875 C 268.855469 208.125 269.066406 207.566406 269.246094 207 C 269.429688 206.429688 269.582031 205.855469 269.707031 205.269531 C 269.832031 204.6875 269.929688 204.097656 269.996094 203.507812 C 270.0625 202.914062 270.101562 202.320312 270.109375 201.722656 C 270.117188 201.125 270.097656 200.53125 270.046875 199.933594 C 270 199.339844 269.917969 198.75 269.8125 198.164062 C 269.703125 197.574219 269.566406 196.996094 269.402344 196.421875 C 269.238281 195.847656 269.046875 195.285156 268.824219 194.730469 C 268.605469 194.175781 268.359375 193.632812 268.085938 193.101562 C 267.8125 192.570312 267.511719 192.054688 267.1875 191.554688 C 266.863281 191.054688 266.515625 190.570312 266.144531 190.105469 C 265.773438 189.636719 265.378906 189.191406 264.964844 188.761719 C 264.550781 188.332031 264.113281 187.925781 263.65625 187.542969 L 249.726562 175.753906 L 263.664062 163.96875 C 264.117188 163.582031 264.546875 163.171875 264.960938 162.746094 C 265.375 162.316406 265.765625 161.867188 266.136719 161.402344 C 266.503906 160.933594 266.851562 160.449219 267.171875 159.949219 C 267.496094 159.449219 267.792969 158.933594 268.0625 158.402344 C 268.335938 157.875 268.578125 157.332031 268.796875 156.777344 C 269.015625 156.222656 269.207031 155.660156 269.367188 155.089844 C 269.53125 154.515625 269.667969 153.9375 269.773438 153.351562 C 269.878906 152.765625 269.957031 152.175781 270.003906 151.582031 C 270.054688 150.988281 270.074219 150.394531 270.0625 149.796875 C 270.054688 149.203125 270.015625 148.609375 269.945312 148.019531 C 269.878906 147.425781 269.78125 146.839844 269.65625 146.257812 C 269.53125 145.675781 269.378906 145.101562 269.195312 144.535156 C 269.015625 143.96875 268.804688 143.410156 268.570312 142.863281 C 268.332031 142.316406 268.070312 141.785156 267.78125 141.265625 C 267.492188 140.742188 267.179688 140.238281 266.839844 139.746094 C 266.503906 139.257812 266.140625 138.785156 265.757812 138.332031 C 265.371094 137.875 264.96875 137.441406 264.539062 137.027344 C 264.113281 136.613281 263.667969 136.21875 263.203125 135.847656 C 262.734375 135.476562 262.253906 135.128906 261.753906 134.804688 C 261.253906 134.480469 260.738281 134.183594 260.210938 133.910156 C 259.683594 133.636719 259.140625 133.390625 258.585938 133.167969 C 258.035156 132.949219 257.472656 132.753906 256.898438 132.589844 C 256.328125 132.425781 255.75 132.289062 255.164062 132.179688 C 254.578125 132.070312 253.988281 131.992188 253.394531 131.941406 C 252.804688 131.890625 252.207031 131.867188 251.613281 131.875 C 251.019531 131.882812 250.425781 131.921875 249.832031 131.984375 C 249.242188 132.050781 248.652344 132.144531 248.070312 132.269531 C 247.488281 132.394531 246.914062 132.542969 246.347656 132.722656 C 245.777344 132.902344 245.222656 133.109375 244.671875 133.34375 C 244.125 133.578125 243.589844 133.839844 243.070312 134.125 C 242.546875 134.414062 242.042969 134.722656 241.550781 135.0625 C 241.058594 135.398438 240.585938 135.757812 240.128906 136.140625 L 224.769531 149.140625 C 222.632812 145.898438 220.164062 142.933594 217.359375 140.25 C 201.011719 124.609375 160.378906 110.410156 131.320312 122.816406 Z M 210.113281 147.824219 C 213.652344 151.226562 216.507812 155.128906 218.683594 159.527344 L 221.664062 165.496094 L 246.902344 144.136719 C 247.292969 143.8125 247.707031 143.53125 248.152344 143.289062 C 248.597656 143.046875 249.0625 142.847656 249.542969 142.699219 C 250.027344 142.546875 250.519531 142.441406 251.023438 142.386719 C 251.527344 142.332031 252.03125 142.328125 252.535156 142.371094 C 253.039062 142.417969 253.535156 142.507812 254.019531 142.652344 C 254.507812 142.792969 254.972656 142.980469 255.421875 143.210938 C 255.871094 143.445312 256.296875 143.71875 256.691406 144.035156 C 257.085938 144.351562 257.445312 144.703125 257.773438 145.089844 C 258.101562 145.476562 258.386719 145.890625 258.628906 146.335938 C 258.875 146.777344 259.074219 147.242188 259.230469 147.722656 C 259.382812 148.207031 259.488281 148.699219 259.546875 149.199219 C 259.605469 149.703125 259.613281 150.207031 259.574219 150.710938 C 259.53125 151.214844 259.441406 151.710938 259.304688 152.199219 C 259.164062 152.6875 258.980469 153.15625 258.75 153.605469 C 258.519531 154.054688 258.246094 154.480469 257.933594 154.878906 C 257.621094 155.273438 257.269531 155.636719 256.886719 155.964844 L 233.496094 175.753906 L 256.886719 195.546875 C 257.277344 195.875 257.628906 196.234375 257.949219 196.632812 C 258.265625 197.03125 258.542969 197.453125 258.777344 197.90625 C 259.011719 198.355469 259.199219 198.828125 259.34375 199.316406 C 259.484375 199.804688 259.574219 200.304688 259.621094 200.808594 C 259.664062 201.316406 259.65625 201.824219 259.597656 202.328125 C 259.542969 202.835938 259.4375 203.332031 259.285156 203.816406 C 259.128906 204.300781 258.929688 204.765625 258.683594 205.210938 C 258.4375 205.65625 258.148438 206.074219 257.820312 206.460938 C 257.492188 206.851562 257.128906 207.203125 256.730469 207.519531 C 256.332031 207.839844 255.90625 208.113281 255.453125 208.347656 C 255.003906 208.578125 254.53125 208.765625 254.042969 208.90625 C 253.554688 209.046875 253.054688 209.136719 252.546875 209.179688 C 252.039062 209.222656 251.535156 209.210938 251.027344 209.15625 C 250.523438 209.097656 250.027344 208.988281 249.542969 208.832031 C 249.058594 208.679688 248.59375 208.476562 248.148438 208.230469 C 247.707031 207.980469 247.289062 207.691406 246.902344 207.363281 L 221.667969 186.011719 L 218.683594 191.976562 C 216.507812 196.378906 213.652344 200.28125 210.113281 203.683594 C 196.515625 216.695312 159.804688 229.460938 135.4375 219.054688 C 120.128906 212.511719 112.363281 197.945312 112.363281 175.753906 C 112.363281 153.5625 120.128906 138.996094 135.4375 132.453125 C 141.707031 129.777344 148.789062 128.628906 156.089844 128.628906 C 177.160156 128.628906 200.015625 138.160156 210.113281 147.824219 Z M 210.113281 147.824219 " fill-opacity="1" fill-rule="nonzero"/><path fill="#9fd5e4" d="M 124.308594 175.753906 C 124.308594 176.242188 124.355469 176.726562 124.449219 177.203125 C 124.542969 177.683594 124.6875 178.148438 124.871094 178.597656 C 125.058594 179.050781 125.289062 179.476562 125.558594 179.882812 C 125.832031 180.289062 126.140625 180.664062 126.484375 181.011719 C 126.828125 181.355469 127.207031 181.664062 127.609375 181.933594 C 128.015625 182.207031 128.445312 182.4375 128.894531 182.621094 C 129.347656 182.808594 129.8125 182.949219 130.292969 183.046875 C 130.769531 183.140625 131.253906 183.1875 131.742188 183.1875 C 132.230469 183.1875 132.714844 183.140625 133.191406 183.046875 C 133.671875 182.949219 134.136719 182.808594 134.585938 182.621094 C 135.039062 182.4375 135.464844 182.207031 135.871094 181.933594 C 136.277344 181.664062 136.652344 181.355469 137 181.011719 C 137.34375 180.664062 137.652344 180.289062 137.921875 179.882812 C 138.195312 179.476562 138.421875 179.050781 138.609375 178.597656 C 138.796875 178.148438 138.9375 177.683594 139.035156 177.203125 C 139.128906 176.726562 139.175781 176.242188 139.175781 175.753906 C 139.175781 175.265625 139.128906 174.78125 139.035156 174.304688 C 138.9375 173.824219 138.796875 173.359375 138.609375 172.910156 C 138.421875 172.457031 138.195312 172.027344 137.921875 171.625 C 137.652344 171.21875 137.34375 170.839844 137 170.496094 C 136.652344 170.152344 136.277344 169.84375 135.871094 169.570312 C 135.464844 169.300781 135.039062 169.070312 134.585938 168.886719 C 134.136719 168.699219 133.671875 168.558594 133.191406 168.460938 C 132.714844 168.367188 132.230469 168.320312 131.742188 168.320312 C 131.253906 168.320312 130.769531 168.367188 130.292969 168.460938 C 129.8125 168.558594 129.347656 168.699219 128.894531 168.886719 C 128.445312 169.070312 128.015625 169.300781 127.609375 169.570312 C 127.207031 169.84375 126.828125 170.152344 126.484375 170.496094 C 126.140625 170.84375 125.832031 171.21875 125.558594 171.625 C 125.289062 172.027344 125.058594 172.457031 124.871094 172.910156 C 124.6875 173.359375 124.542969 173.824219 124.449219 174.304688 C 124.355469 174.78125 124.308594 175.265625 124.308594 175.753906 Z M 124.308594 175.753906 " fill-opacity="1" fill-rule="nonzero"/><g clip-path="url(#36d59298c7)"><path fill="#9fd5e4" d="M 156.375 24.539062 C 153.117188 24.539062 149.859375 24.566406 146.601562 24.625 C 143.199219 24.6875 139.792969 24.777344 136.386719 24.898438 C 132.886719 25.019531 129.386719 25.175781 125.886719 25.359375 C 122.328125 25.546875 118.769531 25.765625 115.214844 26.015625 C 111.636719 26.269531 108.058594 26.558594 104.480469 26.878906 C 100.917969 27.203125 97.359375 27.558594 93.800781 27.953125 C 90.289062 28.34375 86.785156 28.773438 83.285156 29.246094 C 79.863281 29.707031 76.449219 30.214844 73.042969 30.765625 C 69.75 31.296875 66.464844 31.882812 63.1875 32.515625 C 60.058594 33.125 56.941406 33.789062 53.832031 34.507812 C 50.902344 35.191406 47.988281 35.9375 45.089844 36.746094 C 42.394531 37.503906 39.71875 38.328125 37.074219 39.238281 C 34.648438 40.074219 32.246094 40.984375 29.890625 41.996094 C 27.765625 42.90625 25.679688 43.902344 23.65625 45.019531 C 21.855469 46.003906 20.128906 47.101562 18.480469 48.320312 C 17.027344 49.386719 15.695312 50.582031 14.476562 51.90625 C 13.394531 53.074219 12.488281 54.367188 11.753906 55.777344 C 11.054688 57.152344 10.601562 58.601562 10.386719 60.125 C 10.175781 61.675781 10.335938 63.234375 10.339844 64.792969 C 10.339844 65.65625 10.34375 66.519531 10.34375 67.382812 L 10.34375 218.722656 L 10.402344 219.476562 C 13.949219 243.699219 88.554688 254.726562 156.375 254.726562 C 215.109375 254.726562 302.492188 244.847656 302.492188 217.640625 L 302.492188 61.628906 C 302.492188 34.417969 215.109375 24.539062 156.375 24.539062 Z M 292.011719 217.640625 C 292.011719 226.925781 245.429688 244.246094 156.375 244.246094 C 75.480469 244.246094 23.324219 229.207031 20.828125 218.253906 L 20.835938 76.695312 C 20.972656 76.78125 21.140625 76.859375 21.277344 76.945312 C 43.351562 90.835938 95.308594 97.769531 145.796875 98.617188 C 146.253906 98.625 146.707031 98.632812 147.164062 98.640625 C 150.242188 98.683594 153.316406 98.714844 156.375 98.714844 C 158.957031 98.714844 161.613281 98.6875 164.296875 98.648438 C 215.199219 97.988281 269.71875 90.980469 292.011719 76.621094 Z M 291.6875 62.714844 C 290.890625 64.589844 288.707031 66.585938 285.257812 68.605469 C 284.929688 68.792969 284.621094 68.980469 284.273438 69.167969 C 283.511719 69.585938 282.632812 70.003906 281.761719 70.421875 C 280.933594 70.8125 280.105469 71.207031 279.175781 71.601562 C 278.601562 71.847656 277.96875 72.089844 277.355469 72.335938 C 276.019531 72.867188 274.632812 73.398438 273.113281 73.925781 C 272.664062 74.082031 272.1875 74.238281 271.71875 74.394531 C 270 74.96875 268.183594 75.539062 266.25 76.105469 C 265.730469 76.253906 265.195312 76.402344 264.660156 76.554688 C 262.757812 77.085938 260.75 77.613281 258.652344 78.132812 C 257.855469 78.328125 257.039062 78.523438 256.214844 78.714844 C 254.328125 79.15625 252.355469 79.589844 250.328125 80.011719 C 249.101562 80.269531 247.859375 80.519531 246.582031 80.765625 C 244.855469 81.101562 243.050781 81.429688 241.226562 81.75 C 239.519531 82.046875 237.796875 82.34375 236.011719 82.625 C 234.46875 82.867188 232.859375 83.105469 231.253906 83.339844 C 229.105469 83.648438 226.9375 83.957031 224.6875 84.242188 C 223.253906 84.425781 221.761719 84.59375 220.28125 84.769531 C 217.78125 85.0625 215.265625 85.347656 212.648438 85.605469 C 211.1875 85.753906 209.65625 85.878906 208.152344 86.011719 C 205.4375 86.257812 202.714844 86.496094 199.882812 86.703125 C 198.15625 86.828125 196.347656 86.929688 194.578125 87.039062 C 191.851562 87.210938 189.144531 87.386719 186.316406 87.523438 C 183.910156 87.640625 181.386719 87.710938 178.898438 87.800781 C 176.554688 87.882812 174.261719 87.988281 171.851562 88.042969 C 166.835938 88.164062 161.691406 88.234375 156.375 88.234375 C 105.585938 88.234375 66.148438 82.304688 43.183594 75.105469 C 42.578125 74.914062 42.035156 74.714844 41.453125 74.523438 C 39.949219 74.03125 38.484375 73.535156 37.140625 73.03125 C 36.199219 72.675781 35.355469 72.320312 34.496094 71.964844 C 33.625 71.605469 32.738281 71.246094 31.945312 70.890625 C 31.03125 70.472656 30.226562 70.054688 29.417969 69.636719 C 28.808594 69.316406 28.179688 69 27.632812 68.683594 C 26.925781 68.277344 26.328125 67.871094 25.726562 67.464844 C 25.21875 67.117188 24.703125 66.773438 24.269531 66.429688 C 23.867188 66.101562 23.480469 65.753906 23.109375 65.386719 C 22.707031 65.007812 22.332031 64.601562 21.988281 64.167969 C 21.789062 63.902344 21.609375 63.625 21.449219 63.335938 C 21.113281 62.808594 20.875 62.238281 20.742188 61.628906 C 20.742188 52.34375 67.324219 35.019531 156.378906 35.019531 C 245.433594 35.019531 292.019531 52.339844 292.019531 61.628906 C 291.964844 62.007812 291.855469 62.371094 291.6875 62.714844 Z M 291.6875 62.714844 " fill-opacity="1" fill-rule="nonzero"/></g><g clip-path="url(#4ffcc46ba0)"><g clip-path="url(#0f372499ff)"><path fill="#ffffff" d="M 244.84375 215.539062 L 293.980469 215.539062 L 293.980469 249.566406 L 244.84375 249.566406 Z M 244.84375 215.539062 " fill-opacity="1" fill-rule="nonzero"/></g></g><g clip-path="url(#fa06916d72)"><path fill="#9fd5e4" d="M 128.777344 256.078125 C 129.347656 257.375 130.148438 258.59375 130.984375 259.738281 C 132.128906 261.261719 133.273438 262.707031 134.679688 264.003906 C 136.242188 265.453125 137.996094 266.785156 139.902344 267.851562 C 144.511719 270.402344 149.957031 271.46875 155.175781 270.824219 C 157.003906 270.59375 158.796875 270.328125 160.585938 269.832031 C 162.566406 269.300781 164.472656 268.535156 166.339844 267.699219 C 169.5 266.328125 172.511719 264.574219 175.480469 262.859375 C 180.242188 260.117188 184.96875 257.261719 189.957031 254.9375 C 190.492188 254.707031 191.023438 254.480469 191.519531 254.25 C 191.101562 254.441406 190.683594 254.59375 190.261719 254.785156 C 192.664062 253.757812 195.175781 252.957031 197.804688 252.574219 C 197.347656 252.652344 196.851562 252.6875 196.394531 252.765625 C 198.074219 252.535156 199.785156 252.535156 201.464844 252.726562 C 201.003906 252.652344 200.511719 252.613281 200.054688 252.535156 C 201.84375 252.765625 203.597656 253.261719 205.234375 253.984375 C 204.816406 253.792969 204.394531 253.640625 203.976562 253.449219 C 206.566406 254.554688 208.96875 256.078125 211.214844 257.792969 C 210.871094 257.527344 210.492188 257.261719 210.148438 256.957031 C 214.835938 260.574219 218.871094 264.957031 222.71875 269.414062 C 223.558594 270.402344 225.195312 270.976562 226.453125 270.976562 C 227.75 270.976562 229.273438 270.402344 230.1875 269.414062 C 231.101562 268.421875 231.785156 267.089844 231.75 265.679688 C 231.671875 265.222656 231.632812 264.726562 231.558594 264.269531 C 231.292969 263.394531 230.871094 262.59375 230.1875 261.945312 C 225.804688 256.839844 221.160156 252.003906 215.710938 248.042969 C 213.921875 246.707031 212.015625 245.527344 209.996094 244.613281 C 207.902344 243.660156 205.730469 242.824219 203.445312 242.441406 C 201.273438 242.097656 199.140625 241.90625 196.929688 242.136719 C 194.683594 242.402344 192.472656 242.785156 190.339844 243.507812 C 185.882812 244.992188 181.691406 247.203125 177.613281 249.488281 C 175.367188 250.746094 173.121094 252.042969 170.871094 253.335938 C 168.28125 254.824219 165.730469 256.347656 163.0625 257.640625 C 162.375 257.984375 161.652344 258.289062 160.929688 258.59375 C 161.347656 258.402344 161.765625 258.25 162.1875 258.0625 C 159.558594 259.164062 156.851562 260.003906 154.035156 260.382812 C 154.492188 260.308594 154.984375 260.269531 155.445312 260.195312 C 153.460938 260.460938 151.40625 260.5 149.425781 260.230469 C 149.882812 260.308594 150.375 260.347656 150.832031 260.421875 C 149.121094 260.195312 147.445312 259.738281 145.84375 259.089844 C 146.261719 259.28125 146.679688 259.433594 147.101562 259.621094 C 145.5 258.9375 143.976562 258.0625 142.605469 256.992188 C 142.949219 257.261719 143.328125 257.527344 143.671875 257.832031 C 142.109375 256.613281 140.738281 255.242188 139.558594 253.679688 C 139.824219 254.023438 140.089844 254.402344 140.394531 254.746094 C 139.519531 253.605469 138.679688 252.347656 138.070312 251.050781 C 138.035156 250.976562 137.996094 250.898438 137.957031 250.824219 C 137.460938 249.679688 135.9375 248.726562 134.796875 248.382812 C 133.539062 248.042969 131.863281 248.195312 130.71875 248.917969 C 129.578125 249.640625 128.585938 250.707031 128.28125 252.078125 C 128.203125 252.535156 128.167969 253.03125 128.089844 253.488281 C 128.050781 254.367188 128.28125 255.242188 128.777344 256.078125 Z M 128.777344 256.078125 " fill-opacity="1" fill-rule="nonzero"/></g></svg>