<svg width="20" height="21" viewBox="0 0 20 21" fill="none" xmlns="http://www.w3.org/2000/svg">
<path d="M2.85806 16.1343C2.85806 17.1446 3.67708 17.9636 4.68739 17.9636C5.6977 17.9636 6.51672 17.1446 6.51672 16.1343V14.0319C6.51672 12.0113 8.15476 10.3733 10.1754 10.3733C12.196 10.3733 13.8341 12.0113 13.8341 14.0319V16.1343C13.8341 17.1446 14.6531 17.9636 15.6634 17.9636C16.6737 17.9636 17.4927 17.1446 17.4927 16.1343V10.1563C17.4927 7.89856 16.4505 5.76725 14.6685 4.38091C12.0259 2.32496 8.32489 2.32496 5.68224 4.38091C3.90027 5.76725 2.85806 7.89855 2.85806 10.1563V16.1343ZM4.68739 20.4937C2.32999 20.4937 0.418945 18.5827 0.418945 16.2253V10.084C0.418945 7.07365 1.80857 4.23191 4.18452 2.38346C7.70806 -0.357801 12.6427 -0.3578 16.1663 2.38346C18.5422 4.23191 19.9318 7.07365 19.9318 10.084V16.2253C19.9318 18.5827 18.0208 20.4937 15.6634 20.4937H15.1901C13.0941 20.4937 11.3949 18.7946 11.3949 16.6986V14.1229C11.3949 13.4494 10.8489 12.9034 10.1754 12.9034C9.50185 12.9034 8.95583 13.4494 8.95583 14.1229V16.6986C8.95583 18.7946 7.25667 20.4937 5.16065 20.4937H4.68739Z" fill="#9FD5E4"/>
</svg>
